<?xml version="1.0" encoding="utf-8"?>
<!-- Generator: Adobe Illustrator 16.0.4, SVG Export Plug-In . SVG Version: 6.00 Build 0)  -->
<!DOCTYPE svg PUBLIC "-//W3C//DTD SVG 1.1//EN" "http://www.w3.org/Graphics/SVG/1.1/DTD/svg11.dtd">
<svg version="1.1" xmlns="http://www.w3.org/2000/svg" xmlns:xlink="http://www.w3.org/1999/xlink" x="0px" y="0px" width="24px"
	 height="24px" viewBox="0 0 24 24" enable-background="new 0 0 24 24" xml:space="preserve">
<symbol  id="ic_x5F_create_x0D_" viewBox="0 -24 24 24">
	<path d="M3-17.25V-21h3.75L17.814-9.936l-3.75,3.75L3-17.25z M20.707-7.043c0.391,0.391,0.391,1.023,0,1.414l-2.336,2.336
		c-0.391,0.391-1.023,0.391-1.414,0l-1.832-1.832l3.75-3.75L20.707-7.043z"/>
	<polygon fill="none" points="24,-24 0,-24 0,0 24,0 	"/>
</symbol>
<symbol  id="ic_x5F_email" viewBox="0 -24 24 24">
	<polygon fill="none" points="24,-24 0,-24 0,0 24,0 	"/>
</symbol>
<g id="Icons">
</g>
<g id="Guide">
	
		<use xlink:href="#ic_x5F_create_x0D_"  width="24" height="24" id="XMLID_32_" y="-24" transform="matrix(1 0 0 -1 0 0)" overflow="visible"/>
	<rect fill="none" width="24" height="24"/>
</g>
<g id="Artboards">
</g>
<g id="X_Layer" display="none">
	<g display="inline">
		<rect fill="none" stroke="#231F20" stroke-miterlimit="10" width="24" height="24"/>
		<line fill="none" stroke="#231F20" stroke-miterlimit="10" x1="0" y1="0" x2="24" y2="24"/>
		<line fill="none" stroke="#231F20" stroke-miterlimit="10" x1="0" y1="24" x2="24" y2="0"/>
	</g>
</g>
</svg>
