<?xml version="1.0" encoding="utf-8"?>
<!-- Generator: Adobe Illustrator 16.0.4, SVG Export Plug-In . SVG Version: 6.00 Build 0)  -->
<!DOCTYPE svg PUBLIC "-//W3C//DTD SVG 1.1//EN" "http://www.w3.org/Graphics/SVG/1.1/DTD/svg11.dtd">
<svg version="1.1" xmlns="http://www.w3.org/2000/svg" xmlns:xlink="http://www.w3.org/1999/xlink" x="0px" y="0px" width="24px"
	 height="24px" viewBox="0 0 24 24" enable-background="new 0 0 24 24" xml:space="preserve">
<symbol  id="ic_x5F_email" viewBox="0 -24 24 24">
	<polygon fill="none" points="24,-24 0,-24 0,0 24,0 	"/>
</symbol>
<g id="Icons">
</g>
<g id="Guide">
	<path fill-opacity="0.9" d="M12.634,2C7.445,2,3.19,5.947,2.69,11l-2.69,0l3.733,3.733L7.468,11l-2.759,0
		c0.492-3.945,3.85-7,7.93-7c4.42,0,8,3.582,8,8s-3.58,8-8,8c-2.882,0-5.392-1.534-6.8-3.818l-1.575,1.253
		C6.046,20.177,9.118,22,12.634,22c5.526,0,10.005-4.477,10.005-10S18.161,2,12.634,2z"/>
	<path d="M15.588,10.24V9.23c0-1.53-1.245-2.774-2.774-2.774S10.04,7.7,10.04,9.23v1.01c-0.503,0.006-0.911,0.414-0.911,0.919v4.607
		c0,0.509,0.412,0.922,0.921,0.922h5.529c0.509,0,0.921-0.413,0.921-0.922V11.16C16.5,10.654,16.092,10.246,15.588,10.24z
		 M12.814,7.856c0.757,0,1.374,0.616,1.374,1.374v1.009H11.44V9.23C11.44,8.472,12.056,7.856,12.814,7.856z"/>
	<rect fill="none" width="24" height="24"/>
</g>
<g id="Artboards">
</g>
<g id="X_Layer" display="none">
	<g display="inline">
		<rect x="-0.072" fill="none" stroke="#231F20" stroke-miterlimit="10" width="24" height="24"/>
		<line fill="none" stroke="#231F20" stroke-miterlimit="10" x1="-0.072" y1="0" x2="23.928" y2="24"/>
		<line fill="none" stroke="#231F20" stroke-miterlimit="10" x1="-0.072" y1="24" x2="23.928" y2="0"/>
	</g>
</g>
</svg>
